<svg width="90" height="160" viewBox="0 0 340.2 604.7" xmlns="http://www.w3.org/2000/svg" fill="#98ce00"><style>.a{fill:#6ccff6;}.b{fill:#fff;}</style><path d="m124.7 237.7a45.4 45.4 0 0 1 22.7-39.3 45.4 45.4 0 0 1 45.4 0 45.4 45.4 0 0 1 22.7 39.3h-45.4z"/><rect x="94.5" y="252.8" width="15.1" height="22.7"/><rect x="124.7" y="252.8" width="90.7" height="60.5"/><rect x="230.6" y="252.8" width="15.1" height="22.7"/><rect x="139.8" y="328.4" width="15.1" height="22.7"/><rect x="185.2" y="328.4" width="15.1" height="22.7"/><rect transform="matrix(0.70715 0.70706 -0.70715 0.70706 0 0)" x="283.3" y="-27.6" width="15.1" height="22.7" stroke-width="2"/><rect transform="rotate(-45)" x="-57.9" y="212.9" width="15.1" height="22.7"/><path d="m104.5 392.4q3.1-1.3 6.4-1.3 3.3 0 6.4 1.3 3.1 1.3 5.2 3.5 2.2 2.2 3.5 5.3 1.3 3 1.3 6.4 0 3.3-1.3 6.4-1.3 3-3.5 5.2-2.2 2.2-5.2 3.5-3 1.3-6.4 1.3-3.3 0-6.4-1.3-3-1.3-5.2-3.5-2.2-2.2-3.5-5.2-1.3-3.1-1.3-6.4 0-3.3 1.3-6.4 1.3-3.1 3.5-5.2 2.2-2.2 5.2-3.5zm13.7 7.9q-3-3-7.3-3-4.3 0-7.3 3-3 3-3 7.3 0 4.3 3 7.3 3 3 7.3 3 4.3 0 7.3-3 3-3 3-7.3 0-4.3-3-7.3z" class="a"/><path d="m157.1 410.6t-13.4 0q-4 0-6.9-2.9-2.9-2.9-2.9-6.9t2.9-6.9q2.9-2.9 6.9-2.9h23.1v6.2h-23.1q-1.5 0-2.5 1.1t-1 2.5 1 2.5 2.5 1.1h13.4q4 0 6.9 2.9 2.9 2.9 2.9 6.9t-2.9 6.9q-2.8 2.9-6.9 2.9h-23.1v-6.2h23.1q1.5 0 2.5-1.1 1.1-1.1 1.1-2.5t-1.1-2.5q-1.1-1.1-2.5-1.1z" class="a"/><path d="m189.8 391.1t0.1 0q3.3 0 6.4 1.3 3 1.3 5.2 3.5 2.2 2.2 3.5 5.2 1.3 3 1.3 6.4v16.4h-16.4q-3.3 0-6.4-1.3-3-1.3-5.2-3.5-2.2-2.2-3.5-5.2-1.3-3.1-1.3-6.4 0-4.5 2.2-8.2 2.2-3.8 6-6 3.8-2.2 8.2-2.2zm0.1 6.2q-4.3 0-7.3 3-3 3-3 7.3 0 4.3 3 7.3 3 3 7.3 3h10.3v-10.3q0-4.3-3-7.2-3-3-7.2-3z" class="a"/><path d="m229.2 391.1t0.1 0q3.3 0 6.4 1.3 3 1.3 5.2 3.5 2.2 2.2 3.5 5.2 1.3 3 1.3 6.4v16.4h-16.4q-3.3 0-6.4-1.3-3-1.3-5.2-3.5-2.2-2.2-3.5-5.2-1.3-3.1-1.3-6.4 0-4.5 2.2-8.2 2.2-3.8 6-6 3.8-2.2 8.2-2.2zm0.1 6.2q-4.3 0-7.3 3-3 3-3 7.3 0 4.3 3 7.3 3 3 7.3 3h10.3v-10.3q0-4.3-3-7.2-3-3-7.2-3z" class="a"/><path d="m36 466.6q-2.3 0-3.6 1.7-1.3 1.7-1.3 4.7 0 2.9 1.3 4.6 1.4 1.7 3.6 1.7t3.6-1.7q1.3-1.7 1.3-4.6 0-2.9-1.3-4.7-1.3-1.7-3.6-1.7zm0-1.7q3.3 0 5.2 2.2 2 2.2 2 5.9 0 3.7-2 5.9-2 2.2-5.2 2.2-3.3 0-5.2-2.2-2-2.2-2-5.9t2-5.9q2-2.2 5.3-2.2z" class="b"/><path d="m48.3 479v6.2h-1.9v-16.1h1.9v1.8q0.6-1 1.5-1.5 0.9-0.5 2.2-0.5 2.1 0 3.4 1.7 1.3 1.7 1.3 4.4t-1.3 4.4q-1.3 1.7-3.4 1.7-1.3 0-2.2-0.5-0.9-0.5-1.5-1.6zm6.5-4.1q0-2.1-0.9-3.3-0.9-1.2-2.4-1.2t-2.4 1.2q-0.9 1.2-0.9 3.3 0 2.1 0.9 3.3 0.9 1.2 2.4 1.2t2.4-1.2q0.9-1.2 0.9-3.3z" class="b"/><path d="m70 474.4v0.9h-8.8q0.1 2 1.2 3 1.1 1 3 1 1.1 0 2.1-0.3 1-0.3 2.1-0.8v1.8q-1 0.4-2.1 0.7-1.1 0.2-2.2 0.2-2.8 0-4.4-1.6-1.6-1.6-1.6-4.4 0-2.9 1.5-4.5 1.6-1.7 4.2-1.7 2.4 0 3.7 1.5 1.4 1.5 1.4 4.1zm-1.9-0.6q0-1.6-0.9-2.5-0.9-0.9-2.3-0.9-1.6 0-2.6 0.9-1 0.9-1.1 2.6z" class="b"/><path d="m82.8 473.7v7h-1.9v-7q0-1.7-0.6-2.5-0.6-0.8-1.9-0.8-1.6 0-2.4 1-0.9 1-0.9 2.7v6.6h-1.9v-11.7h1.9v1.8q0.7-1.1 1.6-1.6 0.9-0.5 2.2-0.5 2 0 3 1.3 1 1.2 1 3.7z" class="b"/><path d="m102.8 465.7v2.1q-1.2-0.6-2.3-0.9-1.1-0.3-2.1-0.3-1.7 0-2.7 0.7-0.9 0.7-0.9 1.9 0 1 0.6 1.6 0.6 0.5 2.4 0.8l1.3 0.3q2.4 0.4 3.5 1.6 1.1 1.1 1.1 3 0 2.3-1.5 3.4-1.5 1.2-4.4 1.2-1.1 0-2.4-0.2-1.2-0.2-2.6-0.7v-2.2q1.3 0.7 2.5 1.1 1.2 0.4 2.4 0.4 1.8 0 2.8-0.7 1-0.7 1-2 0-1.1-0.7-1.8-0.7-0.6-2.3-1l-1.3-0.2q-2.4-0.5-3.4-1.5-1.1-1-1.1-2.8 0-2.1 1.4-3.2 1.5-1.2 4-1.2 1.1 0 2.2 0.2 1.1 0.2 2.3 0.6z" class="b"/><path d="m111.5 470.4q-1.5 0-2.4 1.2-0.9 1.2-0.9 3.3t0.9 3.3q0.9 1.2 2.4 1.2 1.5 0 2.4-1.2t0.9-3.3q0-2.1-0.9-3.3-0.9-1.2-2.4-1.2zm0-1.6q2.5 0 3.9 1.6t1.4 4.5q0 2.9-1.4 4.5-1.4 1.6-3.9 1.6-2.5 0-3.9-1.6-1.4-1.6-1.4-4.5 0-2.9 1.4-4.5 1.4-1.6 3.9-1.6z" class="b"/><path d="m119.8 476.1v-7.1h1.9v7q0 1.7 0.6 2.5 0.6 0.8 1.9 0.8 1.6 0 2.4-1 0.9-1 0.9-2.7v-6.6h1.9v11.7h-1.9v-1.8q-0.7 1.1-1.6 1.6-0.9 0.5-2.1 0.5-2 0-3.1-1.2-1-1.2-1-3.7z" class="b"/><path d="m140.3 470.8q-0.3-0.2-0.7-0.3-0.4-0.1-0.8-0.1-1.6 0-2.5 1.1-0.9 1.1-0.9 3v6.1h-1.9v-11.7h1.9v1.8q0.6-1.1 1.6-1.6 1-0.5 2.4-0.5 0.2 0 0.4 0 0.2 0 0.5 0.1z" class="b"/><path d="m150.3 469.5v1.8q-0.8-0.4-1.6-0.7-0.8-0.2-1.6-0.2-1.9 0-2.9 1.2-1 1.2-1 3.3 0 2.1 1 3.3 1 1.2 2.9 1.2 0.8 0 1.6-0.2 0.8-0.2 1.6-0.7v1.8q-0.8 0.4-1.7 0.6-0.9 0.2-1.8 0.2-2.6 0-4.2-1.7-1.6-1.7-1.6-4.5 0-2.9 1.6-4.5 1.6-1.6 4.3-1.6 0.9 0 1.7 0.2 0.8 0.2 1.6 0.5z" class="b"/><path d="m163.7 474.4v0.9h-8.8q0.1 2 1.2 3 1.1 1 3 1 1.1 0 2.1-0.3 1-0.3 2.1-0.8v1.8q-1 0.4-2.1 0.7-1.1 0.2-2.2 0.2-2.8 0-4.4-1.6-1.6-1.6-1.6-4.4 0-2.9 1.5-4.5 1.6-1.7 4.2-1.7 2.4 0 3.7 1.5 1.4 1.5 1.4 4.1zm-1.9-0.6q0-1.6-0.9-2.5-0.9-0.9-2.3-0.9-1.6 0-2.6 0.9-1 0.9-1.1 2.6z" class="b"/><path d="m178.9 467.2-2.9 7.7h5.7zm-1.2-2.1h2.4l5.9 15.6h-2.2l-1.4-4h-7l-1.4 4h-2.2z" class="b"/><path d="m197.9 473.7v7h-1.9v-7q0-1.7-0.6-2.5-0.6-0.8-1.9-0.8-1.6 0-2.4 1-0.9 1-0.9 2.7v6.6h-1.9v-11.7h1.9v1.8q0.7-1.1 1.6-1.6 0.9-0.5 2.2-0.5 2 0 3 1.3 1 1.2 1 3.7z" class="b"/><path d="m209.4 470.8v-6.3h1.9v16.2h-1.9v-1.7q-0.6 1-1.5 1.6-0.9 0.5-2.2 0.5-2.1 0-3.4-1.7-1.3-1.7-1.3-4.4t1.3-4.4q1.3-1.7 3.4-1.7 1.3 0 2.2 0.5 0.9 0.5 1.5 1.5zm-6.5 4.1q0 2.1 0.9 3.3 0.9 1.2 2.4 1.2t2.4-1.2q0.9-1.2 0.9-3.3 0-2.1-0.9-3.3-0.9-1.2-2.4-1.2t-2.4 1.2q-0.9 1.2-0.9 3.3z" class="b"/><path d="m222 470.8q-0.3-0.2-0.7-0.3-0.4-0.1-0.8-0.1-1.6 0-2.5 1.1-0.9 1.1-0.9 3v6.1h-1.9v-11.7h1.9v1.8q0.6-1.1 1.6-1.6 1-0.5 2.4-0.5 0.2 0 0.4 0 0.2 0 0.5 0.1z" class="b"/><path d="m228.1 470.4q-1.5 0-2.4 1.2-0.9 1.2-0.9 3.3t0.9 3.3q0.9 1.2 2.4 1.2 1.5 0 2.4-1.2 0.9-1.2 0.9-3.3 0-2.1-0.9-3.3-0.9-1.2-2.4-1.2zm0-1.6q2.5 0 3.9 1.6 1.4 1.6 1.4 4.5 0 2.9-1.4 4.5-1.4 1.6-3.9 1.6-2.5 0-3.9-1.6-1.4-1.6-1.4-4.5 0-2.9 1.4-4.5 1.4-1.6 3.9-1.6z" class="b"/><path d="m236.7 469.1h1.9v11.7h-1.9zm0-4.5h1.9v2.4h-1.9z" class="b"/><path d="m250.3 470.8v-6.3h1.9v16.2h-1.9v-1.7q-0.6 1-1.5 1.6-0.9 0.5-2.2 0.5-2.1 0-3.4-1.7-1.3-1.7-1.3-4.4t1.3-4.4q1.3-1.7 3.4-1.7 1.3 0 2.2 0.5 0.9 0.5 1.5 1.5zm-6.5 4.1q0 2.1 0.9 3.3 0.9 1.2 2.4 1.2t2.4-1.2q0.9-1.2 0.9-3.3 0-2.1-0.9-3.3-0.9-1.2-2.4-1.2t-2.4 1.2q-0.9 1.2-0.9 3.3z" class="b"/><path d="m268.2 467.2-2.9 7.7h5.7zm-1.2-2.1h2.4l5.9 15.6h-2.2l-1.4-4h-7l-1.4 4h-2.2z" class="b"/><path d="m279.4 479v6.2h-1.9v-16.1h1.9v1.8q0.6-1 1.5-1.5 0.9-0.5 2.2-0.5 2.1 0 3.4 1.7 1.3 1.7 1.3 4.4t-1.3 4.4q-1.3 1.7-3.4 1.7-1.3 0-2.2-0.5-0.9-0.5-1.5-1.6zm6.5-4.1q0-2.1-0.9-3.3-0.9-1.2-2.4-1.2-1.5 0-2.4 1.2-0.9 1.2-0.9 3.3 0 2.1 0.9 3.3 0.9 1.2 2.4 1.2 1.5 0 2.4-1.2 0.9-1.2 0.9-3.3z" class="b"/><path d="m292.9 479v6.2h-1.9v-16.1h1.9v1.8q0.6-1 1.5-1.5 0.9-0.5 2.2-0.5 2.1 0 3.4 1.7 1.3 1.7 1.3 4.4t-1.3 4.4q-1.3 1.7-3.4 1.7-1.3 0-2.2-0.5-0.9-0.5-1.5-1.6zm6.5-4.1q0-2.1-0.9-3.3-0.9-1.2-2.4-1.2-1.5 0-2.4 1.2-0.9 1.2-0.9 3.3 0 2.1 0.9 3.3 0.9 1.2 2.4 1.2 1.5 0 2.4-1.2 0.9-1.2 0.9-3.3z" class="b"/><path d="m312 469.4v1.8q-0.8-0.4-1.7-0.6-0.9-0.2-1.8-0.2-1.4 0-2.1 0.4-0.7 0.4-0.7 1.3 0 0.7 0.5 1.1 0.5 0.4 2.1 0.7l0.7 0.1q2 0.4 2.9 1.2 0.9 0.8 0.9 2.2 0 1.6-1.3 2.6-1.3 0.9-3.5 0.9-0.9 0-2-0.2-1-0.2-2.1-0.5v-2q1.1 0.6 2.1 0.8 1 0.3 2 0.3 1.4 0 2.1-0.5 0.7-0.5 0.7-1.3 0-0.8-0.5-1.2-0.5-0.4-2.3-0.8l-0.7-0.2q-1.8-0.4-2.6-1.1-0.8-0.8-0.8-2.1 0-1.6 1.2-2.5 1.2-0.9 3.3-0.9 1.1 0 2 0.2t1.7 0.5z" class="b"/><path d="m89.1 514.9q0-2.1-0.9-3.3-0.9-1.2-2.4-1.2-1.5 0-2.4 1.2-0.9 1.2-0.9 3.3 0 2.1 0.9 3.3 0.9 1.2 2.4 1.2 1.5 0 2.4-1.2 0.9-1.2 0.9-3.3zm-6.5-4.1q0.6-1 1.5-1.5 0.9-0.5 2.2-0.5 2.1 0 3.4 1.7 1.3 1.7 1.3 4.4t-1.3 4.4q-1.3 1.7-3.4 1.7-1.3 0-2.2-0.5-0.9-0.5-1.5-1.6v1.8h-1.9v-16.2h1.9z" class="b"/><path d="m99.1 521.8q-0.8 2.1-1.6 2.7-0.8 0.6-2.1 0.6h-1.5v-1.6h1.1q0.8 0 1.2-0.4t1-1.8l0.3-0.9-4.7-11.5h2l3.6 9.1 3.6-9.1h2z" class="b"/><path d="m119 507.2-2.9 7.7h5.7zm-1.2-2.1h2.4l5.9 15.6h-2.2l-1.4-4h-7l-1.4 4h-2.2z" class="b"/><path d="m138 513.7v7h-1.9v-7q0-1.7-0.6-2.5-0.6-0.8-1.9-0.8-1.6 0-2.4 1-0.9 1-0.9 2.7v6.6h-1.9v-11.7h1.9v1.8q0.7-1.1 1.6-1.6 0.9-0.5 2.2-0.5 2 0 3 1.3 1 1.2 1 3.7z" class="b"/><path d="m147.1 514.9q-2.3 0-3.2 0.5t-0.9 1.8q0 1 0.7 1.6 0.7 0.6 1.8 0.6 1.6 0 2.6-1.1 1-1.1 1-3v-0.4zm3.8-0.8v6.7h-1.9v-1.8q-0.7 1.1-1.6 1.6-1 0.5-2.4 0.5-1.8 0-2.9-1-1.1-1-1.1-2.7 0-2 1.3-3 1.3-1 3.9-1h2.7v-0.2q0-1.3-0.9-2-0.9-0.7-2.4-0.7-1 0-1.9 0.2-0.9 0.2-1.8 0.7v-1.8q1.1-0.4 2-0.6 1-0.2 1.9-0.2 2.5 0 3.8 1.3t1.3 4z" class="b"/><path d="m161.7 510.8q-0.3-0.2-0.7-0.3-0.4-0.1-0.8-0.1-1.6 0-2.5 1.1-0.9 1.1-0.9 3v6.1h-1.9v-11.7h1.9v1.8q0.6-1.1 1.6-1.6 1-0.5 2.4-0.5 0.2 0 0.4 0 0.2 0 0.5 0.1z" class="b"/><path d="m179.9 505.7v2.1q-1.2-0.6-2.3-0.9t-2.1-0.3q-1.7 0-2.7 0.7-0.9 0.7-0.9 1.9 0 1 0.6 1.6 0.6 0.5 2.4 0.8l1.3 0.3q2.4 0.4 3.5 1.6 1.1 1.1 1.1 3 0 2.3-1.5 3.4-1.5 1.2-4.4 1.2-1.1 0-2.4-0.2-1.2-0.2-2.6-0.7v-2.2q1.3 0.7 2.5 1.1 1.2 0.4 2.4 0.4 1.8 0 2.8-0.7 1-0.7 1-2 0-1.1-0.7-1.8-0.7-0.6-2.3-1l-1.3-0.2q-2.4-0.5-3.4-1.5-1.1-1-1.1-2.8 0-2.1 1.4-3.2 1.5-1.2 4-1.2 1.1 0 2.2 0.2 1.1 0.2 2.3 0.6z" class="b"/><path d="m188.5 510.4q-1.5 0-2.4 1.2-0.9 1.2-0.9 3.3t0.9 3.3q0.9 1.2 2.4 1.2 1.5 0 2.4-1.2t0.9-3.3q0-2.1-0.9-3.3-0.9-1.2-2.4-1.2zm0-1.6q2.5 0 3.9 1.6t1.4 4.5q0 2.9-1.4 4.5-1.4 1.6-3.9 1.6-2.5 0-3.9-1.6-1.4-1.6-1.4-4.5 0-2.9 1.4-4.5 1.4-1.6 3.9-1.6z" class="b"/><path d="m203 504.5v1.6h-1.8q-1 0-1.4 0.4-0.4 0.4-0.4 1.5v1h3.2v1.5h-3.2v10.2h-1.9v-10.2h-1.8v-1.5h1.8v-0.8q0-1.9 0.9-2.8 0.9-0.9 2.9-0.9z" class="b"/><path d="m206.1 505.7v3.3h3.9v1.5h-3.9v6.3q0 1.4 0.4 1.8 0.4 0.4 1.6 0.4h2v1.6h-2q-2.2 0-3.1-0.8-0.8-0.8-0.8-3v-6.3h-1.4v-1.5h1.4v-3.3z" class="b"/><path d="m211.5 509.1h1.9l2.4 9.1 2.4-9.1h2.3l2.4 9.1 2.4-9.1h1.9l-3.1 11.7h-2.3l-2.5-9.6-2.5 9.6h-2.3z" class="b"/><path d="m235.4 514.9q-2.3 0-3.2 0.5-0.9 0.5-0.9 1.8 0 1 0.7 1.6 0.7 0.6 1.8 0.6 1.6 0 2.6-1.1 1-1.1 1-3v-0.4zm3.8-0.8v6.7h-1.9v-1.8q-0.7 1.1-1.6 1.6-1 0.5-2.4 0.5-1.8 0-2.9-1-1.1-1-1.1-2.7 0-2 1.3-3 1.3-1 3.9-1h2.7v-0.2q0-1.3-0.9-2-0.9-0.7-2.4-0.7-1 0-1.9 0.2-0.9 0.2-1.8 0.7v-1.8q1.1-0.4 2-0.6 1-0.2 1.9-0.2 2.5 0 3.8 1.3t1.3 4z" class="b"/><path d="m249.9 510.8q-0.3-0.2-0.7-0.3-0.4-0.1-0.8-0.1-1.6 0-2.5 1.1-0.9 1.1-0.9 3v6.1h-1.9v-11.7h1.9v1.8q0.6-1.1 1.6-1.6 1-0.5 2.4-0.5 0.2 0 0.4 0 0.2 0 0.5 0.1z" class="b"/><path d="m261.5 514.4v0.9h-8.8q0.1 2 1.2 3 1.1 1 3 1 1.1 0 2.1-0.3 1-0.3 2.1-0.8v1.8q-1 0.4-2.1 0.7-1.1 0.2-2.2 0.2-2.8 0-4.4-1.6-1.6-1.6-1.6-4.4 0-2.9 1.5-4.5 1.6-1.7 4.2-1.7 2.4 0 3.7 1.5 1.4 1.5 1.4 4.1zm-1.9-0.6q0-1.6-0.9-2.5-0.9-0.9-2.3-0.9-1.6 0-2.6 0.9-1 0.9-1.1 2.6z" class="b"/><path d="m64.9 553.7v7h-1.9v-7q0-1.7-0.6-2.5-0.6-0.8-1.9-0.8-1.6 0-2.4 1-0.9 1-0.9 2.7v6.6h-1.9v-16.2h1.9v6.4q0.7-1.1 1.6-1.6 0.9-0.5 2.2-0.5 2 0 3 1.3 1 1.2 1 3.7z" class="b"/><path d="m70.6 545.7v3.3h3.9v1.5h-3.9v6.3q0 1.4 0.4 1.8 0.4 0.4 1.6 0.4h2v1.6h-2q-2.2 0-3.1-0.8-0.8-0.8-0.8-3v-6.3h-1.4v-1.5h1.4v-3.3z" class="b"/><path d="m79 545.7v3.3h3.9v1.5h-3.9v6.3q0 1.4 0.4 1.8 0.4 0.4 1.6 0.4h2v1.6h-2q-2.2 0-3.1-0.8-0.8-0.8-0.8-3v-6.3h-1.4v-1.5h1.4v-3.3z" class="b"/><path d="m87.3 559v6.2h-1.9v-16.1h1.9v1.8q0.6-1 1.5-1.5 0.9-0.5 2.2-0.5 2.1 0 3.4 1.7 1.3 1.7 1.3 4.4t-1.3 4.4q-1.3 1.7-3.4 1.7-1.3 0-2.2-0.5-0.9-0.5-1.5-1.6zm6.5-4.1q0-2.1-0.9-3.3-0.9-1.2-2.4-1.2-1.5 0-2.4 1.2-0.9 1.2-0.9 3.3 0 2.1 0.9 3.3 0.9 1.2 2.4 1.2 1.5 0 2.4-1.2 0.9-1.2 0.9-3.3z" class="b"/><path d="m99.5 558.1h2.2v2.6h-2.2zm0-8.4h2.2v2.6h-2.2z" class="b"/><path d="m109.6 545.2h1.8l-5.4 17.5h-1.8z" class="b"/><path d="m116.8 545.2h1.8l-5.4 17.5h-1.8z" class="b"/><path d="m126 554.9q-2.3 0-3.2 0.5-0.9 0.5-0.9 1.8 0 1 0.7 1.6 0.7 0.6 1.8 0.6 1.6 0 2.6-1.1 1-1.1 1-3v-0.4zm3.8-0.8v6.7h-1.9v-1.8q-0.7 1.1-1.6 1.6-1 0.5-2.4 0.5-1.8 0-2.9-1-1.1-1-1.1-2.7 0-2 1.3-3 1.3-1 3.9-1h2.7v-0.2q0-1.3-0.9-2-0.9-0.7-2.4-0.7-1 0-1.9 0.2-0.9 0.2-1.8 0.7v-1.8q1.1-0.4 2-0.6 1-0.2 1.9-0.2 2.5 0 3.8 1.3t1.3 4z" class="b"/><path d="m143.4 553.7v7h-1.9v-7q0-1.7-0.6-2.5-0.6-0.8-1.9-0.8-1.6 0-2.4 1-0.9 1-0.9 2.7v6.6h-1.9v-11.7h1.9v1.8q0.7-1.1 1.6-1.6 0.9-0.5 2.2-0.5 2 0 3 1.3 1 1.2 1 3.7z" class="b"/><path d="m152.6 554.9q-2.3 0-3.2 0.5-0.9 0.5-0.9 1.8 0 1 0.7 1.6 0.7 0.6 1.8 0.6 1.6 0 2.6-1.1 1-1.1 1-3v-0.4zm3.8-0.8v6.7h-1.9v-1.8q-0.7 1.1-1.6 1.6-1 0.5-2.4 0.5-1.8 0-2.9-1-1.1-1-1.1-2.7 0-2 1.3-3 1.3-1 3.9-1h2.7v-0.2q0-1.3-0.9-2-0.9-0.7-2.4-0.7-1 0-1.9 0.2-0.9 0.2-1.8 0.7v-1.8q1.1-0.4 2-0.6 1-0.2 1.9-0.2 2.5 0 3.8 1.3t1.3 4z" class="b"/><path d="m167.1 550.8q-0.3-0.2-0.7-0.3-0.4-0.1-0.8-0.1-1.6 0-2.5 1.1-0.9 1.1-0.9 3v6.1h-1.9v-11.7h1.9v1.8q0.6-1.1 1.6-1.6 1-0.5 2.4-0.5 0.2 0 0.4 0 0.2 0 0.5 0.1z" class="b"/><path d="m176.6 549.4v1.8q-0.8-0.4-1.7-0.6-0.9-0.2-1.8-0.2-1.4 0-2.1 0.4-0.7 0.4-0.7 1.3 0 0.7 0.5 1.1 0.5 0.4 2.1 0.7l0.7 0.1q2 0.4 2.9 1.2 0.9 0.8 0.9 2.2 0 1.6-1.3 2.6-1.3 0.9-3.5 0.9-0.9 0-2-0.2-1-0.2-2.1-0.5v-2q1.1 0.6 2.1 0.8 1 0.3 2 0.3 1.4 0 2.1-0.5 0.7-0.5 0.7-1.3 0-0.8-0.5-1.2-0.5-0.4-2.3-0.8l-0.7-0.2q-1.8-0.4-2.6-1.1-0.8-0.8-0.8-2.1 0-1.6 1.2-2.5 1.2-0.9 3.3-0.9 1.1 0 2 0.2t1.7 0.5z" class="b"/><path d="m180.5 558.1h2.2v2.6h-2.2z" class="b"/><path d="m195.5 549.5v1.8q-0.8-0.4-1.6-0.7-0.8-0.2-1.6-0.2-1.9 0-2.9 1.2-1 1.2-1 3.3 0 2.1 1 3.3 1 1.2 2.9 1.2 0.8 0 1.6-0.2 0.8-0.2 1.6-0.7v1.8q-0.8 0.4-1.7 0.6-0.9 0.2-1.8 0.2-2.6 0-4.2-1.7-1.6-1.7-1.6-4.5 0-2.9 1.6-4.5 1.6-1.6 4.3-1.6 0.9 0 1.7 0.2 0.8 0.2 1.6 0.5z" class="b"/><path d="m203.3 550.4q-1.5 0-2.4 1.2-0.9 1.2-0.9 3.3t0.9 3.3q0.9 1.2 2.4 1.2 1.5 0 2.4-1.2t0.9-3.3q0-2.1-0.9-3.3-0.9-1.2-2.4-1.2zm0-1.6q2.5 0 3.9 1.6t1.4 4.5q0 2.9-1.4 4.5-1.4 1.6-3.9 1.6-2.5 0-3.9-1.6-1.4-1.6-1.4-4.5 0-2.9 1.4-4.5 1.4-1.6 3.9-1.6z" class="b"/><path d="m220.9 551.3q0.7-1.3 1.7-1.9 1-0.6 2.4-0.6 1.8 0 2.8 1.3 1 1.3 1 3.6v7h-1.9v-7q0-1.7-0.6-2.5t-1.8-0.8q-1.5 0-2.4 1-0.9 1-0.9 2.7v6.6h-1.9v-7q0-1.7-0.6-2.5-0.6-0.8-1.8-0.8-1.5 0-2.3 1-0.9 1-0.9 2.7v6.6h-1.9v-11.7h1.9v1.8q0.7-1.1 1.6-1.6t2.2-0.5q1.3 0 2.2 0.6 0.9 0.6 1.3 1.9z" class="b"/><path d="m236.1 545.2h1.8l-5.4 17.5h-1.8z" class="b"/><path d="m244.4 550.4q-1.5 0-2.4 1.2-0.9 1.2-0.9 3.3t0.9 3.3q0.9 1.2 2.4 1.2 1.5 0 2.4-1.2 0.9-1.2 0.9-3.3 0-2.1-0.9-3.3-0.9-1.2-2.4-1.2zm0-1.6q2.5 0 3.9 1.6 1.4 1.6 1.4 4.5 0 2.9-1.4 4.5-1.4 1.6-3.9 1.6-2.5 0-3.9-1.6-1.4-1.6-1.4-4.5 0-2.9 1.4-4.5 1.4-1.6 3.9-1.6z" class="b"/><path d="m260.3 549.4v1.8q-0.8-0.4-1.7-0.6-0.9-0.2-1.8-0.2-1.4 0-2.1 0.4-0.7 0.4-0.7 1.3 0 0.7 0.5 1.1 0.5 0.4 2.1 0.7l0.7 0.1q2 0.4 2.9 1.2 0.9 0.8 0.9 2.2 0 1.6-1.3 2.6-1.3 0.9-3.5 0.9-0.9 0-2-0.2-1-0.2-2.1-0.5v-2q1.1 0.6 2.1 0.8 1 0.3 2 0.3 1.4 0 2.1-0.5 0.7-0.5 0.7-1.3 0-0.8-0.5-1.2-0.5-0.4-2.3-0.8l-0.7-0.2q-1.8-0.4-2.6-1.1-0.8-0.8-0.8-2.1 0-1.6 1.2-2.5 1.2-0.9 3.3-0.9 1.1 0 2 0.2t1.7 0.5z" class="b"/><path d="m269.3 554.9q-2.3 0-3.2 0.5t-0.9 1.8q0 1 0.7 1.6 0.7 0.6 1.8 0.6 1.6 0 2.6-1.1 1-1.1 1-3v-0.4zm3.8-0.8v6.7h-1.9v-1.8q-0.7 1.1-1.6 1.6-1 0.5-2.4 0.5-1.8 0-2.9-1-1.1-1-1.1-2.7 0-2 1.3-3 1.3-1 3.9-1h2.7v-0.2q0-1.3-0.9-2-0.9-0.7-2.4-0.7-1 0-1.9 0.2-0.9 0.2-1.8 0.7v-1.8q1.1-0.4 2-0.6 1-0.2 1.9-0.2 2.5 0 3.8 1.3t1.3 4z" class="b"/><path d="m282.4 554.9q-2.3 0-3.2 0.5t-0.9 1.8q0 1 0.7 1.6 0.7 0.6 1.8 0.6 1.6 0 2.6-1.1 1-1.1 1-3v-0.4zm3.8-0.8v6.7h-1.9v-1.8q-0.7 1.1-1.6 1.6-1 0.5-2.4 0.5-1.8 0-2.9-1-1.1-1-1.1-2.7 0-2 1.3-3 1.3-1 3.9-1h2.7v-0.2q0-1.3-0.9-2-0.9-0.7-2.4-0.7-1 0-1.9 0.2-0.9 0.2-1.8 0.7v-1.8q1.1-0.4 2-0.6 1-0.2 1.9-0.2 2.5 0 3.8 1.3t1.3 4z" class="b"/></svg>