<svg width="40" height="64" viewBox="0 0 151.2 243.2" xmlns="http://www.w3.org/2000/svg" fill="#98ce00"><style>.a{fill:#6ccff6;}</style><path d="m30.2 56.9a45.4 45.4 0 0 1 22.7-39.3 45.4 45.4 0 0 1 45.4 0 45.4 45.4 0 0 1 22.7 39.3h-45.4z"/><rect y="72" width="15.1" height="22.7"/><rect x="30.2" y="72" width="90.7" height="60.5"/><rect x="136.1" y="72" width="15.1" height="22.7"/><rect x="45.3" y="147.6" width="15.1" height="22.7"/><rect x="90.7" y="147.6" width="15.1" height="22.7"/><rect transform="matrix(0.70715 0.70706 -0.70715 0.70706 0 0)" x="88.6" y="-88.7" width="15.1" height="22.7" stroke-width="2"/><rect transform="rotate(-45)" x="3.2" y="18.2" width="15.1" height="22.7"/><path d="m10 211.6q3.1-1.3 6.4-1.3t6.4 1.3 5.2 3.5q2.2 2.2 3.5 5.3 1.3 3 1.3 6.4 0 3.3-1.3 6.4-1.3 3-3.5 5.2t-5.2 3.5-6.4 1.3q-3.3 0-6.4-1.3-3-1.3-5.2-3.5t-3.5-5.2q-1.3-3.1-1.3-6.4t1.3-6.4 3.5-5.2q2.2-2.2 5.2-3.5zm13.7 7.9q-3-3-7.3-3t-7.3 3-3 7.3 3 7.3 7.3 3 7.3-3 3-7.3-3-7.3z" class="a"/><path d="m62.6 229.8t-13.4 0q-4 0-6.9-2.9t-2.9-6.9 2.9-6.9 6.9-2.9h23.1v6.2h-23.1q-1.5 0-2.5 1.1t-1 2.5 1 2.5 2.5 1.1h13.4q4 0 6.9 2.9t2.9 6.9-2.9 6.9q-2.8 2.9-6.9 2.9h-23.1v-6.2h23.1q1.5 0 2.5-1.1 1.1-1.1 1.1-2.5t-1.1-2.5-2.5-1.1z" class="a"/><path d="m95.3 210.3t0.1 0q3.3 0 6.4 1.3 3 1.3 5.2 3.5t3.5 5.2 1.3 6.4v16.4h-16.4q-3.3 0-6.4-1.3-3-1.3-5.2-3.5t-3.5-5.2q-1.3-3.1-1.3-6.4 0-4.5 2.2-8.2 2.2-3.8 6-6t8.2-2.2zm0.1 6.2q-4.3 0-7.3 3t-3 7.3 3 7.3 7.3 3h10.3v-10.3q0-4.3-3-7.2-3-3-7.2-3z" class="a"/><path d="m134.7 210.3t0.1 0q3.3 0 6.4 1.3 3 1.3 5.2 3.5t3.5 5.2 1.3 6.4v16.4h-16.4q-3.3 0-6.4-1.3-3-1.3-5.2-3.5t-3.5-5.2q-1.3-3.1-1.3-6.4 0-4.5 2.2-8.2 2.2-3.8 6-6t8.2-2.2zm0.1 6.2q-4.3 0-7.3 3t-3 7.3 3 7.3 7.3 3h10.3v-10.3q0-4.3-3-7.2-3-3-7.2-3z" class="a"/></svg>