<?xml version="1.0" encoding="UTF-8" standalone="no"?>
<svg xmlns="http://www.w3.org/2000/svg" version="1.1" width="100%" height="100%" viewBox="0 0 20 20" id="svg2" xml:space="preserve" style="fill:#000000">
	<path id="body" d="m 4,17 h 2 v 3 h 2 v -3 h 4 v 3 h 2 v -3 h 2 V 9 H 4 v 8 z m 2,-6 h 8 v 4 H 6 v -4 z" style="fill:#a4c639;fill-opacity:1" />
	<path id="head" d="M 14.6,0 13.5,1.1 C 12.5,0.4 11.3,0 10,0 8.7,0 7.5,0.4 6.5,1.1 L 5.4,0 4,1.4 5.1,2.5 C 4.4,3.5 4,4.7 4,6 V 7 H 16 V 6 C 16,4.7 15.6,3.5 14.9,2.5 L 16,1.4 14.6,0 z M 6.1,5 c 0.4,-1.7 2,-3 3.9,-3 1.9,0 3.4,1.3 3.9,3 H 6.1 z" style="fill:#a4c639;fill-opacity:1" />
	<rect id="larm" width="2" height="5" x="0" y="9" style="fill:#a4c639;fill-opacity:1" />
	<rect id="rarm" width="2" height="5" x="18" y="9" style="fill:#a4c639;fill-opacity:1" />
</svg>